<svg width="62" height="55" viewBox="0 0 62 55" fill="none" xmlns="http://www.w3.org/2000/svg">
<g clip-path="url(#clip0_408_4269)">
<path fill-rule="evenodd" clip-rule="evenodd" d="M48.8347 17.5003C45.6762 10.9811 39.0916 6.48822 30.3079 6.48822C17.7636 6.48822 9.93945 15.6516 9.93945 26.7941C9.93945 33.9077 13.0216 40.1635 18.5345 43.7897C18.8487 43.5572 19.0379 43.4062 19.0379 43.4062C21.7877 41.6312 24.4702 39.7629 27.0808 37.8049C22.1624 36.3731 19.6787 31.7174 19.6787 26.7941C19.6787 20.9481 23.3594 15.2571 30.3791 15.2571C36.5609 15.2571 40.6055 20.3267 41.0404 25.8114C43.7502 23.1509 46.3506 20.3785 48.8347 17.5003ZM29.3918 47.0814C37.1705 41.6269 44.3629 35.3961 50.8512 28.4924C50.1084 38.9168 42.514 47.1 30.3862 47.1C30.0512 47.1 29.7197 47.0937 29.3918 47.0814Z" fill="#8DD3BB"/>
<path d="M56.7795 1.02964C46.8266 -2.59062 39.6717 5.19928 39.6717 5.19928L46.4564 9.10128C48.998 7.6574 50.13 9.05902 50.4219 9.82674C50.6284 10.3691 50.3507 10.9607 50.13 11.2847L48.4783 13.3484C39.5649 23.9838 29.0853 33.2246 17.3882 40.7751C17.3882 40.7751 13.857 43.5924 11.9775 43.6346C10.397 43.6699 9.69219 42.3528 11.0235 40.4652L7.74861 33.1542C7.74861 33.1542 -0.773233 38.6761 0.878453 48.3818C1.57615 52.481 5.47042 55.397 9.60676 54.6574C11.7212 54.2841 14.334 53.2629 17.5306 51.171L23.4111 47.3676C35.1082 39.8031 45.595 30.5341 54.5013 19.8846L56.5232 17.4687C59.5703 14.0386 60.9372 11.2143 61.3999 8.98154C62.1118 5.56553 60.0686 2.227 56.7795 1.02964Z" fill="#8DD3BB"/>
</g>
<defs>
<clipPath id="clip0_408_4269">
<rect width="62" height="55" fill="white"/>
</clipPath>
</defs>
</svg>
